<svg width="360" height="360" viewBox="0 0 360 360" fill="none" xmlns="http://www.w3.org/2000/svg">
<path d="M171.31 272.077H166.085V267.602V50.475V46H171.31H316.775C320.258 46 322 47.4917 322 50.475V113.125C322 116.108 320.258 117.6 316.775 117.6H253.029V132.457H316.775C320.258 132.457 322 133.949 322 136.932V193.675C322 196.658 320.258 198.15 316.775 198.15H253.029V213.007H316.775C320.258 213.007 322 214.499 322 217.482V267.602C322 270.585 320.258 272.077 316.775 272.077H171.31Z" fill="#CCC7C7"/>
<path d="M42.225 314.5C38.7417 314.5 37 313.008 37 310.025V263.664C37 261.397 37.6967 259.607 39.09 258.294L70.0223 231.802C71.6943 230.489 72.5303 228.58 72.5303 226.074V50.475C72.5303 47.4917 74.272 46 77.7553 46H154.459H159.684V50.475V269.034V272.077L113.913 311.815C111.823 313.605 109.733 314.5 107.643 314.5H42.225Z" fill="#CCC7C7"/>
</svg>
