<svg width="190" height="179" viewBox="0 0 190 179" fill="none" xmlns="http://www.w3.org/2000/svg">
<path d="M89.5398 150.718H86.0565V147.735V2.98333V0H89.5398H186.517C188.839 0 190 0.994444 190 2.98333V44.75C190 46.7389 188.839 47.7333 186.517 47.7333H144.02V57.638H186.517C188.839 57.638 190 58.6324 190 60.6213V98.45C190 100.439 188.839 101.433 186.517 101.433H144.02V111.338H186.517C188.839 111.338 190 112.332 190 114.321V147.735C190 149.724 188.839 150.718 186.517 150.718H89.5398Z" fill="#CCC7C7"/>
<path d="M3.48336 179C1.16112 179 0 178.006 0 176.017V145.109C0 143.598 0.464448 142.404 1.39334 141.529L22.0148 123.868C23.1295 122.993 23.6869 121.72 23.6869 120.049V2.98333C23.6869 0.994443 24.848 0 27.1702 0H78.306H81.7893V2.98333V148.689V150.718L51.2751 177.21C49.8817 178.403 48.4884 179 47.0951 179H3.48336Z" fill="#CCC7C7"/>
</svg>
